<svg width="964" height="346" viewBox="0 0 964 346" fill="none" xmlns="http://www.w3.org/2000/svg">
<path d="M0 345.818C4.0015e-06 300.047 18.1828 256.149 50.5484 223.784C82.914 191.418 126.811 173.235 172.583 173.235L172.583 345.818L0 345.818Z" fill="#FACD08"/>
<path d="M172.583 173.235C218.355 173.235 262.252 191.418 294.618 223.784C326.983 256.149 345.166 300.047 345.166 345.818L172.583 345.818L172.583 173.235Z" fill="#F2426C"/>
<path d="M172.583 173.166C126.811 173.166 82.9141 154.983 50.5485 122.618C18.1829 90.2524 7.23887e-05 46.3552 2.15834e-10 0.583403L172.583 0.58313L172.583 173.166Z" fill="#9500FE"/>
<path d="M471.198 267V206.164L476.419 220.238L408.092 108.1H432.381L489.812 202.759H476.646L534.304 108.1H556.777L488.677 220.238L493.671 206.164V267H471.198ZM636.461 267V241.576L635.326 236.809V193.452C635.326 184.221 632.602 177.108 627.154 172.114C621.857 166.969 613.837 164.396 603.092 164.396C595.979 164.396 589.018 165.607 582.208 168.028C575.398 170.298 569.647 173.4 564.956 177.335L555.876 160.991C562.081 155.997 569.496 152.214 578.122 149.641C586.899 146.917 596.055 145.555 605.589 145.555C622.084 145.555 634.796 149.565 643.725 157.586C652.654 165.607 657.118 177.865 657.118 194.36V267H636.461ZM596.963 268.362C588.034 268.362 580.165 266.849 573.355 263.822C566.696 260.795 561.551 256.634 557.919 251.337C554.287 245.889 552.471 239.76 552.471 232.95C552.471 226.443 553.984 220.541 557.011 215.244C560.189 209.947 565.259 205.71 572.22 202.532C579.333 199.354 588.867 197.765 600.822 197.765H638.958V213.428H601.73C590.834 213.428 583.494 215.244 579.711 218.876C575.928 222.508 574.036 226.897 574.036 232.042C574.036 237.944 576.382 242.711 581.073 246.343C585.764 249.824 592.272 251.564 600.595 251.564C608.767 251.564 615.88 249.748 621.933 246.116C628.138 242.484 632.602 237.187 635.326 230.226L639.639 245.208C636.764 252.321 631.694 257.996 624.43 262.233C617.166 266.319 608.01 268.362 596.963 268.362ZM697.446 267V146.69H718.33V179.378L716.287 171.206C719.616 162.883 725.216 156.527 733.085 152.138C740.954 147.749 750.64 145.555 762.141 145.555V166.666C761.233 166.515 760.325 166.439 759.417 166.439C758.66 166.439 757.904 166.439 757.147 166.439C745.494 166.439 736.263 169.92 729.453 176.881C722.643 183.842 719.238 193.906 719.238 207.072V267H697.446ZM835.191 268.362C823.084 268.362 813.701 265.108 807.043 258.601C800.384 252.094 797.055 242.787 797.055 230.68V120.358H818.847V229.772C818.847 236.279 820.436 241.273 823.614 244.754C826.943 248.235 831.634 249.975 837.688 249.975C844.498 249.975 850.173 248.083 854.713 244.3L861.523 259.963C858.193 262.838 854.183 264.957 849.492 266.319C844.952 267.681 840.185 268.362 835.191 268.362ZM776.625 164.623V146.69H853.351V164.623H776.625Z" fill="#0D0620"/>
</svg>
